<svg xmlns="http://www.w3.org/2000/svg" viewBox="0 0 200 200" fill="none">
  <!-- 8 arms at 45° intervals, matching the provided image -->
  <rect x="91" y="12" width="18" height="88" rx="7" fill="#C9ADA7" transform="rotate(0 100 100)"/>
  <rect x="91" y="12" width="18" height="88" rx="7" fill="#C9ADA7" transform="rotate(45 100 100)"/>
  <rect x="91" y="12" width="18" height="88" rx="7" fill="#C9ADA7" transform="rotate(90 100 100)"/>
  <rect x="91" y="12" width="18" height="88" rx="7" fill="#C9ADA7" transform="rotate(135 100 100)"/>
  <rect x="91" y="12" width="18" height="88" rx="7" fill="#C9ADA7" transform="rotate(180 100 100)"/>
  <rect x="91" y="12" width="18" height="88" rx="7" fill="#C9ADA7" transform="rotate(225 100 100)"/>
  <rect x="91" y="12" width="18" height="88" rx="7" fill="#C9ADA7" transform="rotate(270 100 100)"/>
  <rect x="91" y="12" width="18" height="88" rx="7" fill="#C9ADA7" transform="rotate(315 100 100)"/>
</svg>
